# xmcd
#
# Track frame offsets:
# 150
# 16490
# 32111
# 49893
# 63104
# 78566
# 96266
# 110837
# 129415
# 145969
# 159684
# 177243
#
# Disc length: 2589 seconds
#
#
# Revision: 0
# Processed by: cddbd v1.5.2PL0 Copyright (c) Steve Scherf et al.
# Submitted via: FreeRIP 2.96 
#
DISCID=a60a1b0c
DTITLE=Gimmel - Kaksi kertaa enemm‰n
DYEAR=2003
DGENRE=Pop
TTITLE0=Syd‰n pliis s‰rkek‰‰
TTITLE1=Blaah Blaah Blaah
TTITLE2=Harmaata lunta
TTITLE3=Oon hullu kai
TTITLE4=2X
TTITLE5=Salaa "Susanna"
TTITLE6=Soittolista "Ushma"
TTITLE7=Friikki
TTITLE8=Mustavalkoisuutta "Jenni"
TTITLE9=Huuto
TTITLE10=Paha p‰iv‰
TTITLE11=Ikuisesti j‰‰hyv‰iset
EXTD=
EXTT0=
EXTT1=
EXTT2=
EXTT3=
EXTT4=
EXTT5=
EXTT6=
EXTT7=
EXTT8=
EXTT9=
EXTT10=
EXTT11=
PLAYORDER=
